<?xml version="1.0" standalone="no"?>
<!DOCTYPE svg PUBLIC "-//W3C//DTD SVG 20010904//EN"
 "http://www.w3.org/TR/2001/REC-SVG-20010904/DTD/svg10.dtd">
<svg version="1.0" xmlns="http://www.w3.org/2000/svg"
 width="956.000000pt" height="936.000000pt" viewBox="0 0 956.000000 936.000000"
 preserveAspectRatio="xMidYMid meet">

<g transform="translate(0.000000,936.000000) scale(0.100000,-0.100000)"
fill="#000000" stroke="none">
<path d="M3910 9351 c0 -11 35 -21 85 -21 59 -2 20 -15 -101 -34 -1077 -171
-2094 -755 -2809 -1611 -437 -524 -747 -1118 -930 -1784 -38 -140 -90 -392
-101 -488 -6 -59 -24 -80 -24 -29 0 13 -7 39 -15 57 -13 30 -14 -52 -14 -736
0 -718 1 -767 16 -730 19 47 21 50 28 43 3 -3 17 -72 30 -153 102 -609 381
-1285 747 -1805 158 -225 266 -357 462 -564 355 -377 766 -686 1257 -944 306
-161 781 -333 1114 -403 55 -11 150 -31 210 -44 l110 -23 -65 -2 -65 -2 49 -9
c152 -25 373 -31 883 -25 555 7 731 15 658 28 -22 4 -53 8 -70 8 -16 1 67 21
185 45 246 50 428 100 650 178 1168 409 2135 1276 2671 2392 306 638 454 1305
451 2035 -4 1494 -729 2886 -1958 3764 -561 402 -1212 677 -1871 791 -81 14
-161 30 -178 35 -28 7 -26 8 17 9 54 1 80 9 72 22 -7 12 -1494 12 -1494 0z
m1260 -235 c662 -83 1228 -276 1775 -605 321 -193 586 -400 866 -680 699 -699
1138 -1599 1263 -2586 17 -139 40 -457 34 -498 l-3 -27 -33 28 c-55 47 -179
82 -602 167 -216 44 -208 41 -214 78 -3 17 -7 61 -10 96 -16 177 -93 527 -166
750 -104 318 -326 737 -538 1016 -158 206 -417 473 -619 638 -521 424 -1192
712 -1822 783 -46 5 -71 13 -86 28 -11 12 -41 87 -68 171 -88 271 -119 359
-160 442 -47 97 -84 136 -127 136 -77 0 -131 -109 -280 -568 -28 -88 -58 -170
-65 -181 -11 -17 -28 -23 -87 -28 -360 -36 -789 -166 -1161 -352 -259 -130
-405 -225 -664 -431 -574 -458 -1011 -1119 -1212 -1831 -60 -213 -121 -563
-121 -694 0 -31 -5 -40 -22 -47 -13 -5 -126 -25 -253 -46 -322 -51 -455 -86
-518 -135 -32 -26 -33 -33 -7 -70 40 -56 184 -100 645 -195 72 -15 135 -32
142 -39 6 -6 18 -72 27 -146 61 -539 245 -1058 540 -1525 215 -340 554 -702
896 -957 509 -378 1151 -629 1768 -689 64 -6 120 -14 124 -18 3 -3 16 -64 28
-136 50 -304 111 -570 149 -655 11 -24 16 -47 11 -50 -11 -7 -314 13 -455 29
-871 101 -1691 461 -2370 1039 -115 99 -225 203 -225 214 0 4 18 8 40 8 28 0
67 14 134 49 82 42 150 84 166 101 3 3 31 23 62 43 43 28 58 44 58 61 0 22
-36 56 -60 56 -10 0 -139 -85 -269 -175 -113 -80 -110 -67 34 125 63 84 115
161 115 171 0 16 -53 70 -68 69 -13 -1 -158 -219 -220 -330 -14 -25 -28 -60
-31 -79 -4 -19 -11 -36 -17 -38 -22 -7 -234 230 -377 422 -294 394 -504 787
-657 1230 -169 492 -243 932 -242 1455 1 770 188 1487 564 2158 427 764 1112
1419 1893 1809 519 260 1108 421 1670 457 149 9 705 -3 825 -18z m-480 -203
c12 -27 60 -163 107 -303 100 -299 138 -381 189 -408 11 -6 103 -24 205 -41
101 -17 238 -44 304 -60 621 -152 1239 -509 1679 -973 561 -589 896 -1305 975
-2086 12 -110 26 -136 88 -164 64 -28 273 -79 499 -122 202 -38 250 -50 224
-59 -8 -3 -114 -27 -235 -52 -412 -88 -542 -127 -558 -169 -4 -9 -11 -64 -17
-123 -40 -394 -165 -823 -341 -1176 -194 -388 -403 -672 -720 -982 -548 -536
-1194 -851 -1987 -970 -57 -8 -112 -20 -121 -25 -26 -14 -85 -132 -120 -240
-16 -52 -60 -201 -96 -330 -37 -129 -74 -246 -83 -260 -15 -23 -16 -23 -23 -5
-4 11 -22 99 -39 195 -49 275 -99 497 -127 566 -29 74 -33 76 -198 94 -811 87
-1531 434 -2115 1020 -279 279 -500 586 -665 925 -188 386 -280 709 -348 1225
l-12 95 -59 29 c-76 37 -296 93 -576 147 -58 11 -112 23 -120 25 -30 10 14 22
175 48 329 54 534 106 569 145 10 11 19 57 26 131 41 424 159 837 347 1215 88
177 116 224 239 410 378 571 947 1042 1564 1298 300 124 537 189 860 237 80
12 155 28 167 36 42 26 93 142 187 420 130 387 120 368 156 287z m4420 -4260
c0 -101 -22 -384 -41 -518 -71 -522 -194 -930 -419 -1390 -134 -274 -248 -459
-443 -720 -140 -186 -379 -456 -393 -442 -2 2 -14 37 -25 78 -11 40 -41 114
-67 164 -25 49 -57 111 -70 138 -14 26 -30 47 -38 47 -24 0 -65 -20 -70 -35
-3 -8 33 -92 81 -187 53 -104 83 -174 76 -176 -7 -2 -44 18 -84 46 -208 144
-283 192 -299 192 -30 0 -21 15 44 75 304 284 600 689 789 1080 162 337 265
641 330 980 14 73 59 394 59 421 0 26 -29 38 -71 32 -20 -2 -25 -11 -31 -53
-27 -197 -42 -293 -59 -384 -187 -991 -791 -1890 -1649 -2456 -494 -325 -970
-504 -1580 -593 l-115 -17 -3 -48 -3 -47 45 0 c50 0 241 30 386 61 627 132
1222 431 1738 872 86 73 106 83 82 37 -5 -10 -7 -25 -4 -33 8 -21 237 -169
353 -227 55 -28 101 -53 101 -56 0 -8 -125 -121 -226 -205 -496 -409 -1009
-683 -1599 -853 -331 -96 -675 -152 -1054 -172 l-133 -7 40 74 c47 86 78 175
162 467 76 266 96 319 120 327 11 4 24 4 29 0 18 -11 366 54 517 95 283 79
620 219 859 357 395 229 799 585 1082 953 305 397 541 898 647 1370 37 168 66
343 73 443 5 67 10 90 22 97 17 9 181 46 331 75 269 52 490 124 490 159 0 9 5
16 10 16 6 0 10 -17 10 -37z"/>
<path d="M4923 8818 c-6 -7 -8 -29 -6 -49 l5 -36 106 -12 c683 -74 1241 -265
1796 -614 174 -109 478 -343 549 -422 18 -19 18 -21 -17 -50 -20 -16 -36 -35
-36 -41 0 -5 13 -22 28 -37 l28 -27 35 26 c18 14 59 39 89 56 30 18 78 49 106
69 29 21 54 36 57 33 7 -7 -21 -55 -109 -186 l-72 -107 34 -30 c19 -17 40 -28
46 -25 13 5 68 77 68 89 0 4 25 44 55 89 95 143 119 223 80 266 -10 11 -31 20
-47 20 -33 0 -131 -43 -202 -88 -54 -35 -68 -39 -65 -19 3 27 -5 37 -93 114
-653 563 -1483 911 -2354 988 -52 4 -73 2 -81 -7z"/>
<path d="M4160 8809 c-310 -36 -691 -133 -1000 -256 -310 -123 -527 -237 -800
-419 -218 -145 -480 -355 -480 -384 0 -5 14 -23 31 -41 31 -33 31 -33 47 -13
22 26 149 130 283 231 421 317 905 550 1419 684 208 54 513 105 677 112 61 3
69 12 72 75 1 21 -2 22 -86 21 -49 -1 -122 -5 -163 -10z"/>
<path d="M4275 8562 c-22 -1 -89 -9 -150 -17 -454 -63 -899 -209 -1288 -422
-355 -195 -614 -389 -903 -677 -334 -334 -565 -654 -759 -1051 -204 -416 -315
-786 -369 -1230 -8 -66 -16 -145 -18 -175 l-3 -55 46 -3 46 -3 12 118 c65 619
277 1213 611 1713 101 151 117 173 214 294 595 743 1452 1245 2363 1386 71 11
149 20 174 20 53 0 64 9 73 62 8 42 5 44 -49 40z"/>
<path d="M5011 8556 c-7 -8 -11 -30 -9 -48 4 -39 -5 -36 218 -68 271 -39 646
-144 899 -251 709 -302 1347 -849 1760 -1509 80 -127 215 -390 281 -545 131
-307 239 -740 269 -1073 6 -62 13 -117 16 -123 4 -5 24 -9 45 -9 35 0 39 3 45
30 16 73 -56 507 -127 765 -17 61 -33 119 -35 130 -20 74 -138 367 -203 501
-378 785 -988 1410 -1765 1809 -388 198 -756 315 -1204 380 -95 14 -174 25
-176 25 -1 0 -8 -6 -14 -14z"/>
<path d="M1570 7772 c-64 -19 -56 -136 20 -297 22 -46 40 -87 40 -90 0 -3 -16
6 -36 21 -42 33 -30 42 -166 -128 -231 -289 -437 -638 -594 -1008 -142 -336
-252 -772 -289 -1149 -8 -85 -15 -176 -15 -203 l0 -49 48 3 47 3 7 105 c11
173 50 434 93 621 105 456 309 930 568 1319 126 189 322 440 342 440 8 0 22
-13 32 -30 9 -16 23 -30 31 -30 19 0 62 30 62 44 0 6 -29 74 -64 151 -75 164
-83 185 -64 185 20 0 163 -61 243 -103 63 -34 70 -35 95 -22 60 31 42 64 -67
122 -141 75 -272 113 -333 95z"/>
<path d="M7665 7460 c-31 -32 -31 -32 23 -90 75 -80 232 -286 324 -425 379
-570 606 -1201 668 -1855 17 -187 16 -184 73 -188 56 -4 53 -19 32 181 -49
455 -138 806 -311 1226 -151 365 -407 779 -666 1079 -49 56 -95 102 -102 102
-7 0 -25 -13 -41 -30z"/>
<path d="M558 4503 c-25 -4 -28 -8 -28 -46 0 -65 27 -300 50 -433 97 -574 307
-1110 628 -1599 103 -157 308 -421 377 -485 l27 -25 28 35 c16 19 30 38 30 42
0 3 -22 30 -49 60 -26 29 -92 109 -146 178 -340 436 -592 948 -723 1470 -63
249 -122 610 -122 751 0 44 -13 63 -38 58 -4 -1 -19 -4 -34 -6z"/>
<path d="M790 4383 c0 -126 77 -544 136 -741 102 -340 199 -568 372 -872 299
-528 767 -1009 1322 -1360 389 -245 832 -424 1285 -519 104 -21 386 -61 436
-61 28 0 29 2 29 49 l0 50 -42 5 c-24 3 -86 11 -138 17 -124 14 -366 62 -505
99 -861 231 -1644 792 -2154 1545 -281 415 -473 857 -570 1315 -30 139 -60
323 -68 420 l-8 85 -47 3 -48 3 0 -38z"/>
<path d="M1907 1671 c-21 -36 -16 -48 33 -86 21 -16 87 -68 147 -115 567 -448
1208 -735 1897 -850 189 -31 454 -56 467 -43 4 4 5 27 2 50 l-5 42 -52 5 c-28
3 -100 10 -161 16 -781 79 -1574 419 -2181 934 -49 42 -98 76 -109 76 -12 0
-28 -12 -38 -29z"/>
<path d="M4415 7980 c-458 -34 -952 -183 -1355 -410 -264 -149 -491 -321 -710
-540 -354 -353 -601 -732 -768 -1180 -119 -320 -179 -602 -203 -955 -39 -586
103 -1232 384 -1745 503 -916 1377 -1537 2387 -1696 400 -62 810 -53 1170 27
653 145 1182 427 1639 873 549 537 876 1207 973 1991 16 137 16 613 0 742 -50
383 -183 812 -344 1112 -190 353 -323 534 -587 804 -139 142 -246 235 -404
350 -461 337 -1016 553 -1582 617 -126 14 -469 20 -600 10z m611 -215 c365
-47 660 -134 979 -290 196 -96 343 -183 477 -282 618 -459 1036 -1102 1197
-1843 131 -602 73 -1245 -163 -1813 -292 -703 -834 -1285 -1485 -1594 -311
-148 -509 -214 -826 -277 -225 -45 -617 -59 -876 -31 -960 102 -1818 657
-2328 1507 -142 237 -281 586 -346 866 -142 617 -95 1237 137 1824 154 389
387 744 691 1051 484 488 1176 819 1852 886 61 6 128 13 150 15 80 8 426 -4
541 -19z"/>
<path d="M3990 7440 c-63 -16 -85 -70 -78 -190 l3 -55 82 -3 c95 -3 105 5 101
80 -3 40 -1 43 25 46 27 3 27 3 27 -60 l0 -63 -120 -180 c-116 -172 -120 -181
-120 -232 l0 -53 165 -2 c91 -1 184 -2 208 -3 41 0 42 1 45 34 2 19 1 44 -2
57 -6 23 -10 24 -101 24 -52 0 -95 3 -95 6 0 3 26 43 58 87 109 156 120 172
131 212 13 49 14 205 1 239 -18 47 -50 59 -178 62 -64 2 -133 -1 -152 -6z"/>
<path d="M4481 7441 c-44 -12 -70 -39 -80 -84 -13 -53 -14 -548 -2 -579 16
-43 43 -51 185 -51 162 -1 199 11 215 70 12 40 15 551 5 591 -11 39 -58 55
-179 58 -60 2 -125 -1 -144 -5z m149 -351 l0 -240 -31 0 -30 0 3 230 c2 192 6
232 18 240 39 25 40 18 40 -230z"/>
<path d="M4956 7440 c-16 -5 -39 -18 -51 -30 -21 -20 -22 -29 -29 -305 -8
-327 -5 -343 61 -366 53 -19 258 -18 298 2 49 24 54 55 53 354 0 149 -3 281
-7 295 -4 14 -19 31 -33 38 -32 15 -253 25 -292 12z m158 -142 c0 -10 -1 -115
-2 -233 l-2 -215 -31 0 -31 0 4 223 c2 122 7 228 11 235 13 19 52 11 51 -10z"/>
<path d="M5499 7443 c-44 -4 -47 -6 -53 -38 -6 -29 -11 -34 -44 -40 -54 -9
-60 -15 -63 -70 l-4 -50 44 -10 43 -9 -7 -247 -8 -247 66 -7 c90 -10 113 -3
121 36 3 17 6 177 6 354 0 285 -2 324 -16 329 -9 3 -21 5 -27 4 -7 -1 -33 -3
-58 -5z"/>
<path d="M4041 6348 c-10 -24 -35 -79 -56 -123 -20 -44 -88 -195 -150 -335
-62 -140 -161 -362 -219 -493 -58 -130 -106 -239 -106 -241 0 -3 -22 -51 -50
-108 -27 -57 -50 -106 -50 -110 0 -5 149 -8 330 -8 l330 0 0 -1293 0 -1293
765 1 765 0 0 2023 0 2022 -770 0 -771 0 -18 -42z m1421 -125 c2 -10 3 -855 3
-1878 l0 -1860 -637 -3 -638 -2 0 1285 0 1285 -283 0 c-156 0 -286 3 -290 6
-3 4 0 16 8 28 14 21 107 219 240 511 40 88 115 250 165 360 51 110 101 219
112 243 l19 42 649 0 c610 0 649 -1 652 -17z"/>
<path d="M3057 4093 c-4 -3 -7 -30 -7 -59 0 -57 -8 -64 -79 -64 -51 0 -117
-43 -142 -93 -27 -52 -43 -236 -34 -385 10 -173 37 -209 244 -327 130 -73 161
-97 161 -123 1 -9 3 -64 5 -122 6 -121 -1 -196 -19 -203 -7 -3 -24 -3 -39 0
l-27 5 0 174 0 174 -27 1 c-116 4 -286 -1 -292 -7 -4 -5 -5 -112 -1 -239 5
-187 9 -236 23 -262 29 -54 86 -84 189 -99 l47 -6 -6 -59 c-5 -46 -3 -59 8
-60 52 -5 196 5 208 14 9 8 12 27 9 64 l-5 53 53 0 c103 0 145 32 176 135 20
63 22 93 23 300 0 217 -1 232 -22 270 -45 84 -111 134 -300 229 -50 25 -74 43
-78 59 -3 12 -4 76 -3 142 3 120 3 120 28 123 49 5 54 -7 57 -144 1 -69 4
-128 5 -130 7 -7 243 -14 274 -8 l34 6 0 167 c0 202 -11 252 -69 304 -41 37
-93 57 -148 57 l-33 0 0 60 0 60 -103 0 c-57 0 -107 -3 -110 -7z"/>
<path d="M8760 4513 c-69 -9 -68 -8 -68 -75 -1 -127 -61 -506 -113 -712 -81
-321 -216 -666 -371 -950 -147 -268 -381 -600 -507 -720 -17 -17 -31 -35 -31
-41 0 -14 60 -77 70 -73 14 5 220 260 289 357 326 456 579 1033 685 1561 49
243 97 635 80 649 -5 4 -20 6 -34 4z"/>
<path d="M7324 1668 c-16 -12 -56 -45 -89 -73 -428 -364 -1010 -659 -1590
-804 -203 -51 -527 -105 -680 -113 l-50 -3 -9 -48 c-4 -26 -6 -51 -3 -54 17
-16 488 50 692 97 356 83 763 241 1080 420 252 143 674 444 720 514 16 23 15
26 -6 55 -27 37 -28 37 -65 9z"/>
</g>
</svg>
