<?xml version="1.0" ?><svg xmlns="http://www.w3.org/2000/svg" width="205.49457mm" height="309.664mm" viewBox="0 0 205.49457 309.664">
    <path d="m 12578.783,12344.09 c -13.549,-0.597 -32.059,1.653 -44.957,11.568 -20.637,15.864 -27.11,57.344 -20.433,75.91 6.676,18.567 61.099,25.618 61.099,25.618 0,0 3.844,34.549 11.33,45.125 7.486,10.576 47.951,15.98 47.951,15.98 l 16.995,115.277 -45.522,63.809 c 1.087,-31.056 -43.336,-45.48 -65.35,-42.656 12.948,-9.401 22.053,-39.366 20.03,-54.172 -2.023,-14.806 -19.423,-47.592 -32.776,-56.406 -13.353,-8.813 -53.277,-5.613 -53.277,-5.613 -7.887,-31.84 -28.406,-56.794 -57.189,-66.889 -21.041,-6.816 -35.002,-3.644 -76.477,13.043 -41.476,16.686 -21.648,44.302 -15.174,71.916 6.474,27.615 34.598,39.482 34.598,39.482 0,0 -5.869,14.454 -12.141,19.977 -6.272,5.523 -24.478,29.025 -24.478,29.025 0,0 -10.118,-6.58 -20.639,-10.693 -10.52,-4.113 -62.718,-14.1 -89.828,-10.34 -27.111,3.76 -47.748,5.993 -62.315,43.244 -14.567,37.25 35.811,73.324 35.811,73.324 0,0 -15.984,8.227 -18.008,46.065 -2.023,37.839 110.177,78.004 110.177,78.004 -45.121,8.621 -91.919,35.98 -93.384,86.158 -0.405,25.852 40.668,59.341 76.276,79.67 0,0 58.828,6.164 79.869,0.406 21.041,-5.758 47.139,-58.287 51.793,-74.973 4.653,-16.686 -5.26,-39.836 -5.26,-39.836 0,0 30.953,-19.388 35.607,-20.328 4.653,-0.94 18.208,11.281 26.301,18.567 41.031,18.345 76.307,-8.648 95.496,-45.222 21.585,32.529 60.636,44.698 110.916,37.413 5.876,28.316 13.549,52.255 69.397,77.557 27.11,8.695 80.524,0.588 99.744,-6.58 19.22,-7.168 39.856,-37.957 32.775,-67.452 -7.081,-29.495 -32.978,-33.256 -32.978,-33.256 0,0 16.591,-12.806 29.742,-29.14 13.15,-16.334 -0.812,-36.899 -12.344,-45.125 -11.532,-8.225 -52.601,-25.969 -52.601,-25.969 0,0 -1.013,-5.288 5.056,-22.092 6.07,-16.804 -17.398,-42.068 -17.398,-42.068 43.255,-1.688 87.943,-15.628 71.638,-61.396 -7.284,-19.036 -45.135,-28.971 -63.343,-28.501 -41.6,6.654 -72.083,23.539 -77.285,68.627 l -91.045,21.973 67.576,-121.855 c 0,0 4.653,1.644 13.554,6.109 8.902,4.466 34.598,10.458 56.651,8.695 22.052,-1.763 20.027,-14.805 41.068,-15.98 21.042,-1.175 57.055,-7.403 85.987,-25.617 28.932,-18.214 28.932,-52.88 25.087,-71.446 -3.844,-18.567 -45.724,-46.768 -69.8,-49.941 -24.075,-3.173 -41.88,3.993 -57.256,12.572 -15.376,8.578 -34.596,51.822 -34.596,51.822 0,0 -9.712,-1.88 -15.377,-1.527 -35.389,12.434 -67.011,35.134 -49.972,75.324 l -22.862,34.901 -8.498,-30.436 -5.666,-76.146 15.176,-28.555 c 0,0 35.809,1.291 52.601,-8.227 16.793,-9.518 34.8,-18.917 41.274,-31.843 6.474,-12.926 -2.832,-58.756 -11.127,-70.037 -8.295,-11.281 -46.937,-24.089 -74.25,-24.559 -27.313,-0.47 -46.535,4.7 -52.807,8.578 -6.272,3.878 -12.342,-4.113 -18.412,-7.756 -2.276,-1.366 -8.62,-2.749 -16.75,-3.107 z m -248.484,816.301 -4.967,67.664 41.85,12.463 51.777,250.267 279.639,0.928 36.173,-246.561 33.336,-6.386 -6.029,-77.551 z" fill="#b9e2b9" paint-order="fill markers stroke" transform="translate(-123.77815,-61.625614) matrix(0.26458333,0,0,0.26458333,-3088.4299,-3202.4504)"/>
    <path d="m 12671.928,12336.684 c -5.12,0.09 -10.356,0.506 -15.68,1.261 -29.236,4.147 -40.416,8.503 -40.416,15.752 0,4.521 0.9,4.915 4.045,1.77 6.072,-6.072 59.758,-5.168 79.252,1.334 18.208,6.073 35.271,20.749 42.959,36.951 11.028,23.239 2.887,52.82 -17.424,63.324 -5.184,2.68 -12.311,8.062 -15.838,11.959 -6.331,6.996 -6.317,7.086 0.986,7.086 9.772,0 30.56,-10.839 39.764,-20.734 17.899,-19.243 19.624,-49.507 4.34,-76.157 -15.928,-27.773 -46.148,-43.176 -81.988,-42.546 z m -92.85,3.591 c -2.614,-0.125 -5.62,-0.115 -9.115,0 -45.907,1.621 -81.706,39.451 -71.877,75.953 7.549,28.038 33.881,45.836 61.029,41.25 12.715,-2.149 13.685,-1.809 11.213,3.928 -7.646,17.747 -5.999,26.653 7.047,38.109 13.728,12.053 30.812,20.411 41.721,20.411 5.363,0 6.847,2.193 6.847,10.111 0,11.515 -2.85,12.295 -17.406,4.767 -6.778,-3.504 -11.469,-4.2 -13.646,-2.023 -5.472,5.471 0.07,15.113 15.72,27.352 l 14.784,11.56 1.365,38.994 1.365,38.994 -12.324,21.907 c -6.778,12.049 -19.842,34.145 -29.031,49.105 -9.191,14.961 -22.619,40.744 -29.842,57.295 -7.222,16.552 -14.039,31.208 -15.147,32.57 -1.107,1.362 -8.301,-10.036 -15.988,-25.328 -14.73,-29.306 -27.579,-69.122 -29.613,-91.767 -1.515,-16.861 -20.501,-69.959 -28.584,-79.94 -5.153,-6.364 -6.807,-6.787 -11.463,-2.922 -7.125,5.913 -6.866,13.856 1.429,43.791 3.779,13.638 6.317,25.352 5.639,26.03 -0.678,0.678 -10.882,-2.549 -22.676,-7.172 -24.449,-9.581 -30.277,-10.313 -30.277,-3.803 0,9.527 14.356,22.209 38.824,34.299 19.84,9.804 25.722,14.407 27.276,21.346 9.617,42.94 11.248,47.225 33.494,88.045 l 17.447,32.017 2.143,77.137 2.14,77.135 -12.636,-16.055 c -6.95,-8.83 -23.279,-29.134 -36.286,-45.119 -46.421,-57.048 -74.03,-96.164 -71.158,-100.811 1.004,-1.625 -1.103,-14.961 -4.683,-29.637 -3.58,-14.675 -7.466,-33.061 -8.635,-40.855 -2.36,-15.725 -9.446,-27.789 -13.77,-23.443 -1.542,1.55 -2.554,16.574 -2.252,33.388 l 0.553,30.571 -8.314,-9.803 c -4.572,-5.391 -23.37,-29.723 -41.77,-54.07 -18.399,-24.348 -35.816,-45.176 -38.705,-46.284 -9.439,-3.622 -9.637,8.252 -0.451,26.983 4.915,10.021 8.935,19.07 8.935,20.109 0,1.039 -7.055,1.384 -15.679,0.768 -21.923,-1.567 -23.072,5.542 -2.315,14.303 8.97,3.787 21.813,9.216 28.539,12.066 6.727,2.851 16.585,11.093 21.907,18.316 5.322,7.224 23.844,31.457 41.16,53.85 17.317,22.392 30.967,41.12 30.334,41.619 -0.634,0.497 -17.358,6.616 -37.164,13.596 -36.491,12.86 -43.535,18.158 -34.313,25.812 4.042,3.355 9.142,3.407 24.438,0.248 29.111,-6.013 28.383,-6.386 26.716,13.702 -3.073,37.027 -28.642,74.621 -56.412,82.941 -46.527,13.94 -106.688,-10.697 -126.875,-51.957 -7.674,-15.684 -8.059,-18.595 -4.609,-34.684 2.072,-9.659 7.612,-22.131 12.311,-27.717 10.116,-12.023 8.253,-15.681 -5.159,-10.125 -22.967,9.513 -34.789,57.378 -21.138,85.577 10.029,20.717 36.557,44.578 63.652,57.254 42.721,19.986 96.46,12.397 122.539,-17.305 23.538,-26.808 36.554,-75.711 24.889,-93.514 -7.112,-10.855 -4.525,-13.707 15.029,-16.568 l 15.168,-2.221 25.275,30.85 c 13.901,16.966 25.276,31.86 25.276,33.101 0,1.241 -6.993,6.054 -15.539,10.696 -20.873,11.336 -26.59,16.499 -26.59,24.017 0,8.618 7.17,7.921 36.154,-3.515 l 24.36,-9.612 18.613,21.199 18.609,21.2 v 50.812 c 0,50.008 -0.119,50.839 -7.582,52.303 -4.171,0.818 -50.047,3.245 -101.949,5.392 -62.731,2.597 -95.67,5.227 -98.252,7.846 -4.911,4.98 -10.933,50.645 -8.742,66.287 2.327,16.614 9.016,22.697 27.812,25.282 18.735,2.577 17.146,-1.605 23.741,62.345 3.853,37.363 22.921,134.31 32.353,164.483 7.327,23.44 15.433,27.505 61.432,30.812 v 0 c 19.691,1.416 80.838,2.548 135.879,3.063 57.776,0.541 97.565,-0.243 111.689,-10.465 11.254,-10.616 11.725,-12.096 15.264,-48.025 2.008,-20.39 4.53,-50.724 5.605,-67.407 2.565,-39.793 15.033,-127.219 18.703,-131.152 1.584,-1.697 8.951,-2.847 16.373,-2.557 10.653,0.417 14.308,-0.989 17.35,-6.674 5.222,-9.757 2.482,-65.629 -3.857,-78.652 -8.914,-18.315 -15.984,-19.565 -120.247,-21.281 l -95.24,-1.569 v -88.853 c 0,-61.146 1.131,-88.857 3.625,-88.857 5.912,0 80.468,-36.248 105.037,-51.069 l 22.723,-13.705 21.283,8.522 c 28.45,11.389 44.936,14.296 51.27,9.039 12.041,-9.993 1.378,-19.158 -31.211,-26.817 -9.732,-2.287 -17.688,-5.143 -17.688,-6.349 0,-1.205 7.207,-7.126 16.008,-13.155 22.918,-15.701 41.279,-33.974 41.279,-41.076 0,-3.364 -2.329,-8.049 -5.177,-10.412 -4.327,-3.591 -7.51,-2.54 -19.379,6.398 -49.643,37.387 -91.154,64.044 -134.34,86.264 -27.149,13.969 -50.819,25.399 -52.598,25.399 -1.809,0 -4.022,-19.479 -5.025,-44.227 l -1.795,-44.227 15.07,-34.13 c 24.214,-54.841 42.053,-86.418 49.766,-88.092 3.78,-0.821 24.314,-4.596 45.631,-8.387 52.705,-9.374 111.886,-24.772 125.375,-32.621 22.051,-12.831 12.792,-35.135 -9.776,-23.551 -14.335,7.358 -148.511,44.681 -151.047,42.016 -0.919,-0.965 54.644,-103.683 57.959,-107.149 0.872,-0.911 3.144,1.128 5.047,4.53 5.114,9.138 23.688,15.664 44.575,15.664 20.463,0 34.006,-4.092 44.14,-13.338 5.189,-4.734 13.782,-6.468 37.309,-7.525 25.923,-1.167 33.091,-2.826 47.181,-10.924 17.93,-10.303 33.903,-23.817 38.786,-32.815 6.997,-12.892 13.037,-44.883 10.945,-57.965 -3.218,-20.129 -27.841,-43.735 -53.356,-51.152 -26.268,-7.636 -65.196,-5.74 -77.97,3.797 -12.317,9.196 -26.949,28.059 -29.848,38.482 -1.834,6.593 0.994,4.679 12.996,-8.797 19.63,-22.039 29.894,-26.239 59.039,-24.154 27.56,1.972 54.426,15.046 64.535,31.402 8.055,13.034 8.227,18.629 1.284,42.01 -6.353,21.391 -17.933,33.328 -46.686,48.125 -16.393,8.436 -24.79,10.569 -42.742,10.856 -14.896,0.237 -25.272,2.277 -31.133,6.117 -21.239,13.916 -57.654,15.321 -73.09,2.822 -7.097,-5.747 -7.174,-6.422 -1.924,-16.574 6.136,-11.867 6.974,-19.706 2.407,-22.529 -6.189,-3.825 -13.331,2.436 -29.383,25.761 l -16.418,23.86 -2.162,-19.85 c -1.189,-10.917 -2.328,-32.149 -2.53,-47.185 -0.336,-25.119 0.707,-29.634 12.827,-55.61 14.975,-32.098 17.203,-40.442 11.347,-42.492 -4.308,-1.508 -17.986,16.135 -38.279,49.375 l -12.057,19.748 c -22.922,-12.227 -38.528,-20.15 -39.105,-37.258 -0.524,-15.524 0.546,-15.959 -8.85,-15.959 -16.433,0 -46.897,-15.573 -54.338,-27.777 -12.885,-21.133 -6.717,-44.131 16.41,-61.193 14.053,-10.368 38.016,-16.929 51.78,-14.176 10.478,2.096 10.687,1.936 4.957,-3.783 -3.365,-3.36 -7.673,-4.949 -15.514,-5.325 z m 34.018,27.403 c -1.89,0.303 -3.847,2.213 -3.897,5.174 -0.08,4.898 -1.855,5.825 -8.127,4.25 -9.071,-2.276 -25.681,8.621 -25.681,16.849 0,2.732 4.539,7.552 10.088,10.709 6.649,3.783 9.946,3.921 9.81,14.102 -0.103,7.73 -2.822,6.762 -8.146,6.752 -11.2,0.294 -11.81,8.263 0.402,8.461 4.284,0.836 10.933,-0.447 10.318,3.65 -1.048,6.979 6.235,10.482 7.938,3.361 0.12,-2.807 -1.365,-4.679 2.996,-4.759 4.155,-0.08 4.144,1.928 4.416,5.302 0.06,9.437 8.118,8.522 9.361,1.008 0,-3.311 -0.883,-6.176 1.756,-8.449 1.906,-1.642 5.07,-2.524 7.25,-3.69 9.957,-5.33 6.097,-17.703 -5.615,-24.367 -7.27,-4.137 -8.341,0.09 -7.758,-12.281 0.326,-6.93 1.115,-5.256 6.465,-5.256 7.473,0 8.19,-0.78 4.642,-5.055 -2.307,-2.781 -4.179,-4.63 -7.625,-5.054 -6.373,-0.784 -5.367,-1.883 -5.095,-6.242 0.215,-3.465 -1.609,-4.768 -3.498,-4.465 z m -9.641,20.693 c 0.573,-0.38 1.341,0.123 2.268,0.123 1.853,0 4.014,-0.973 3.371,5.057 -0.472,4.431 -1.518,5.054 -3.371,5.054 -1.854,0 -3.612,0.605 -3.371,-5.054 0.15,-3.534 0.53,-4.799 1.103,-5.18 z m -8.758,0.615 c 0.652,0.143 1.037,1.218 0.914,4.366 -0.232,5.915 -2.021,6.791 -4.91,2.117 -1.067,-1.726 -0.397,-4.09 1.487,-5.254 0.941,-0.582 1.858,-1.372 2.509,-1.229 z m 13.805,21.264 c 3.11,0 2.975,2.082 3.246,6.611 0.46,7.663 -1.03,6.018 -2.803,7.114 -1.772,1.095 -4.601,-1.133 -4.601,-4.95 0.06,-5.567 -2.313,-8.775 4.158,-8.775 z m 14.072,5.207 c 1.853,0 3.369,1.517 3.369,3.371 0,1.853 -1.516,3.369 -3.369,3.369 -1.854,0 -3.371,-1.516 -3.371,-3.369 0,-1.854 1.517,-3.371 3.371,-3.371 z m -237.5,39.822 c -13.345,0.291 -25.97,2.125 -33.804,5.414 -32.98,13.845 -50.056,47.041 -42.217,82.069 4.585,20.486 20.52,41.056 37.142,47.941 l 10.022,4.151 -13.83,15.623 c -7.606,8.592 -15.333,18.867 -17.17,22.834 l -3.34,7.212 -15.637,-9.703 c -8.6,-5.336 -28.422,-12.931 -44.049,-16.875 -25.164,-6.352 -31.071,-6.732 -51.685,-3.328 -47.591,7.859 -69.877,29.75 -69.877,68.635 0,17.449 13.994,47.61 25.627,55.232 l 7.996,5.241 -6.613,8.406 c -15.925,20.245 -10.754,48.535 14.015,76.674 14.902,16.93 29.595,25.66 63.451,37.703 h -0.01 c 30.854,10.974 74.144,9.689 74.144,-2.201 0,-4.126 -1.165,-4.508 -30.332,-9.957 -27.574,-5.15 -69.228,-21.061 -84.355,-32.221 -15.226,-11.234 -30.233,-33.955 -30.233,-45.774 0,-5.195 1.76,-13.308 3.911,-18.029 3.379,-7.416 6.054,-8.586 19.66,-8.586 8.661,0 16.638,-0.888 17.726,-1.976 1.087,-1.087 -7.264,-6.773 -18.56,-12.637 -23.838,-12.375 -36.235,-30.906 -36.205,-54.162 0.03,-30.013 21.164,-45.949 64.308,-48.483 48.595,-2.855 91.944,19.946 114.352,55.821 6.298,8.359 10.014,15.256 10.065,0.402 0,-4.839 -3.778,-14.386 -8.412,-21.215 -4.634,-6.829 -8.426,-14.456 -8.426,-16.951 0,-6.008 28.212,-44.159 36.008,-48.693 4.687,-2.726 4.937,-3.595 1.065,-3.705 -7.846,-0.224 -33.524,-25.773 -38.946,-38.748 -11.484,-27.487 -2.682,-58.447 20.411,-71.797 11.739,-6.786 17.039,-7.635 41.029,-6.567 31.868,1.419 47.537,9.386 63.939,32.504 16.134,22.742 25.058,22.484 18.25,-0.529 -5.676,-19.183 -31.855,-44.642 -51.287,-49.875 -10.716,-2.886 -24.782,-4.14 -38.127,-3.85 z m 432.291,16.418 c -2.385,0.219 -4.914,3.024 -5.047,8.287 -0.877,8.53 -0.673,9.891 -4.38,12.207 -3.707,2.315 -6.741,7.216 -6.741,10.891 0,3.676 3.034,8.579 6.741,10.895 3.707,2.315 7.157,3.398 6.74,11.888 -0.315,6.407 -1.328,7.345 -8.059,5.656 -12.491,-3.135 -14.493,4.971 -2.359,9.551 5.73,2.162 9.875,1.534 10.418,8.248 0.226,6.523 4.557,3.314 8.158,-1.256 1.035,-2.696 0.236,-3.824 4.322,-3.744 2.358,0.05 2.361,1.722 2.539,4.586 0.479,7.721 8.392,6.641 7.268,-0.324 -0.794,-4.917 2.442,-7.014 8.668,-11.144 9.117,-6.05 7.713,-19.673 -2.307,-26.239 -9.564,-6.266 -11.21,-14.855 -2.847,-14.855 5.19,0 9.841,-2.392 2.796,-6.625 -2.406,-1.445 -6.479,-0.918 -6.056,-10.518 0.152,-3.453 -5.586,-6.712 -5.959,1.133 -0.372,7.824 -2.987,6.173 -5.502,6.297 -6.832,0.337 -4.447,-2.97 -4.211,-7.692 0.444,-5.091 -1.797,-7.46 -4.182,-7.242 z m 7.424,24.647 c 1.852,-0.06 3.084,0.181 3.369,5.054 0.269,4.601 -1.516,5.055 -3.369,5.055 -1.854,0 -3.311,-0.08 -3.371,-5.055 -0.06,-5.675 -0.32,-4.933 3.371,-5.054 z m -420.656,2.041 c -1.939,0.286 -3.996,2.739 -3.996,6.385 0,2.808 -2.996,5.054 -6.741,5.054 -4.68,0 -5.673,-1.33 -5.822,-6.595 -0.208,-7.353 -10.021,-5.568 -8.506,1.826 0.62,11.774 -2.636,9.728 -6.4,13.734 -8.756,9.32 -6.95,18.44 4.762,24.053 6.435,3.084 9.226,6.986 9.226,12.892 0,6.935 -1.221,8.08 -6.74,6.328 -3.844,-1.219 -6.74,-0.605 -6.74,1.43 0,1.963 3.032,5.464 6.74,7.779 3.707,2.315 6.74,7.637 6.74,11.825 0,4.188 1.517,7.615 3.371,7.615 1.853,0 3.369,-3.793 3.369,-8.428 0,-5.791 -0.142,-8.152 5.78,-8.357 4.602,-0.159 4.261,2.482 4.939,6.806 1.258,8.031 6.746,7.605 7.1,-0.503 0.413,-9.445 3.016,-8.936 7.582,-13.225 11.001,-10.335 10.474,-18.301 -1.809,-27.381 -5.453,-4.032 -9.243,-6.426 -9.732,-11.271 -0.693,-6.875 2.438,-7.28 6.508,-7.28 4.237,0 11.026,-9.53 -2.744,-9.48 -1.942,0 -3.989,-2.382 -3.594,-6.602 0.468,-5.014 -1.354,-6.892 -3.293,-6.605 z m 328.984,1.347 c -17.4,0.04 -34.163,7.794 -50.125,23.18 -11.793,11.367 -16.605,18.627 -16.605,25.051 0,12.267 3.381,11.211 14.199,-4.434 18.713,-27.063 51.618,-40.034 73.662,-29.037 6.033,3.01 11.401,5.044 11.926,4.518 4.491,-4.491 -20.917,-19.308 -33.057,-19.278 z m -338.035,20.204 c 6.488,-0.381 4.9,2.999 5.055,6.74 0.202,4.873 -0.07,6.333 -5.055,6.74 -5.263,0.429 -5.055,-2.995 -5.055,-6.74 0,-3.744 -1.222,-6.371 5.055,-6.74 z m 429.707,0 c 1.853,0 3.074,-0.874 3.369,5.054 0.236,4.743 -1.516,5.057 -3.369,5.057 -1.854,0 -2.828,-0.215 -3.371,-5.057 -0.626,-5.582 1.517,-5.054 3.371,-5.054 z m -323.016,12.666 c -3.638,0.09 -7.479,0.408 -11.539,0.929 -24.955,3.202 -27.372,9.336 -3.591,9.11 25.377,-0.239 41.686,7.427 50.98,23.964 17.551,31.228 12.712,59.353 -15.26,88.678 -17.07,17.897 -18.035,19.684 -10.619,19.684 12.422,0 32.019,-15.13 42.281,-32.641 12.733,-21.727 13.127,-52.775 0.971,-76.601 -12.148,-23.813 -27.752,-33.792 -53.223,-33.123 z m -102.068,12.117 c 3.164,0.852 3.803,4.365 3.803,10.802 0,4.758 -0.39,8.085 -4.662,8.227 -4.22,0.141 -4.971,-4.65 -4.961,-9.383 0.01,-5.636 -0.712,-9.187 1.744,-9.621 1.686,-0.298 3.021,-0.309 4.076,-0.03 z m 12.639,6.859 c 0.409,-0.01 0.859,0.117 1.33,0.408 1.884,1.165 2.552,3.528 1.486,5.254 -2.89,4.674 -4.912,3.804 -4.912,-2.117 0,-2.167 0.868,-3.504 2.096,-3.545 z m 378.254,63.072 c -9.35,0.06 -15.992,2.074 -27.756,7.459 -14.149,6.478 -18.94,10.443 -18.94,15.676 0,6.483 0.564,6.637 7.582,2.059 14.258,-9.3 36.573,-12.156 57.311,-7.336 27.547,6.404 36.215,12.986 36.215,27.504 0,6.519 -3.032,17.797 -6.74,25.064 -3.707,7.267 -6.741,14.032 -6.741,15.033 0,4.129 6.842,1.298 16.494,-6.824 24.136,-20.309 18.053,-56.174 -11.767,-69.365 -8.667,-3.834 -24.47,-7.762 -35.117,-8.727 -4.008,-0.363 -7.425,-0.562 -10.541,-0.543 z m -562.707,30.868 c -1.148,0.111 -3.645,-1.473 -3.26,2.863 0.154,1.734 -2.216,3.4 -3.901,3.582 -5.09,0.553 -4.997,0.799 -5.853,-3.145 -1.03,-4.746 -7.232,-5.055 -7.016,1.893 0.06,2.119 -3.604,5.075 -8.22,9.353 -9.451,8.759 -8.325,16.863 2.806,20.188 3.999,1.195 9.159,2.142 9.386,8.795 0.275,8.05 9.536,7.048 9.606,1.928 0.102,-8 7.029,-7.5 9.163,0.662 0.944,3.608 4.213,7.223 7.267,8.035 3.053,0.811 5.878,1.652 6.276,1.865 0.398,0.215 2.288,-2.532 4.201,-6.105 2.763,-5.164 1.749,-8.548 -4.938,-16.494 -10.42,-12.383 -10.657,-17.419 -0.83,-17.559 7.475,-0.106 8.996,-4.354 1.965,-8.522 -4.612,-2.734 -12.298,-0.604 -12.26,-3.926 0.05,-4.055 -3.244,-3.525 -4.392,-3.413 z m -4.692,15.966 c 2.78,0 5.057,2.275 5.057,5.055 0,2.781 -2.277,5.057 -5.057,5.057 -2.781,0 -5.054,-2.276 -5.054,-5.057 0,-2.78 2.273,-5.055 5.054,-5.055 z m 557.531,50.555 c -8.684,0 -8.19,2.714 2.258,12.397 6.91,6.404 8.284,10.037 6.514,17.238 -4.022,16.362 -11.415,23.885 -28.447,28.943 -36.981,10.982 -60.277,32.495 -29.934,27.643 7.799,-1.247 21.068,-5.334 29.488,-9.08 18.685,-8.313 38.861,-6.397 59.672,5.664 14.756,8.553 28.1,26.355 28.1,37.492 0,7.627 -9.132,16.675 -29.711,29.443 -16.94,10.51 -16.794,16.263 0.486,19.071 15.906,2.586 25.01,11.019 29.367,27.199 11.33,42.078 -30.968,74.099 -90.888,68.806 -36.466,-3.222 -48.184,-7.083 -67.281,-22.179 -18.716,-14.794 -23.232,-13.68 -14.549,3.586 8.069,16.044 28.94,29.406 54.617,34.967 v 0 c 30.108,6.521 62.914,6.401 82.586,-0.302 23.93,-8.154 50.753,-35.305 53.9,-54.557 3.282,-20.077 -3.513,-42.344 -16.724,-54.805 -13.101,-12.358 -9.465,-12.03 3.861,-24.644 17.117,-17.117 18.505,-27.138 6.822,-49.231 -9.263,-17.519 -34.733,-36.154 -53.517,-39.158 -10.596,-1.694 -12.771,-3.213 -10.819,-7.558 1.343,-2.991 3.065,-11.521 3.828,-18.957 1.589,-15.49 -8.531,-31.979 -19.629,-31.979 z m -111.914,34.186 c -0.65,0.04 -1.662,0.772 -3.103,2.213 -2.225,2.223 -6.298,4.044 -9.051,4.044 -6.256,0 -20.607,13.184 -20.607,18.932 0,2.352 2.753,6.26 6.119,8.682 7.981,5.743 11.102,14.479 6.734,18.847 -2.38,2.381 -2.214,7.274 0.526,15.578 4.02,12.18 10.212,16.456 10.212,7.051 0,-6.051 5.608,-6.764 7.543,-0.959 2.063,6.19 22.577,-18 22.69,-26.758 0.07,-4.977 -3.3,-9.253 -10.012,-12.724 -14.04,-7.261 -13.869,-18.537 0.281,-18.537 12.895,0 11.739,-7.939 -1.382,-9.492 -4.954,-0.587 -9.008,-2.786 -9.008,-4.887 0,-1.362 -0.291,-2.026 -0.942,-1.99 z m -8.586,20.213 c 0.97,0.213 2.054,0.816 3.135,1.898 v 0 c 2.418,2.42 2.476,4.304 0.174,5.726 -1.887,1.167 -4.446,0.479 -5.686,-1.529 -2.402,-3.886 -0.535,-6.737 2.373,-6.095 z m -205.748,1.041 c -0.818,0.105 -2.04,0.419 -3.67,0.845 -6.599,1.726 -18.008,21.65 -22.124,38.639 -2.86,11.807 6.76,31.953 18.234,38.189 v 0 c 11.612,6.31 28.851,6.335 34.068,0.05 3.332,-4.015 3.246,-5.308 -0.43,-6.484 -2.524,-0.808 -10.097,-3.159 -16.824,-5.223 -19.404,-5.954 -24.263,-13.536 -21.508,-33.568 1.285,-9.342 5.231,-20.663 8.766,-25.158 4.754,-6.047 5.94,-7.608 3.486,-7.291 z m 203.936,19.355 c 0.496,-0.183 1.131,-0.137 1.91,0.119 2.405,0.79 4.854,5.489 5.44,10.443 0.587,4.955 -0.551,9.01 -2.528,9.01 -1.976,0 -3.718,-0.38 -3.871,-0.844 -0.152,-0.462 -0.983,-5.163 -1.846,-10.445 -0.838,-5.134 -0.594,-7.735 0.895,-8.283 z m 18.078,6.092 c 1.854,0 3.371,1.515 3.371,3.369 0,1.854 -1.517,3.369 -3.371,3.369 -1.853,0 -3.369,-1.515 -3.369,-3.369 0,-1.854 1.516,-3.369 3.369,-3.369 z m -67.525,0.345 c -1.37,-0.745 -4.424,1.687 -8.379,7.723 -13.408,20.463 -8.898,48.511 9.918,59.723 11.687,6.964 32.413,8.711 46.234,-0.278 15.086,-9.812 0.285,-6.291 -11.59,-6.738 -38.25,-1.44 -51.296,-17.075 -37.92,-49.09 2.788,-6.671 3.106,-10.594 1.737,-11.34 z m -320.506,110.491 c -1.867,-0.235 -3.75,1.218 -3.848,5.422 -0.192,8.267 -6.758,8.543 -9.41,7.966 -0.415,-0.09 -1.003,0.02 -1.504,0.03 0.07,-2.916 0.06,-7.964 -0.785,-10.364 -1.214,-3.468 -5.82,-0.09 -6.781,2.44 -0.853,2.24 -1.15,6.739 -1.699,10.986 -7.81,3.846 -16.423,10.386 -17.928,15.127 -2.338,7.365 3.746,15.525 14.679,19.682 6.455,2.454 7.738,5.059 6.879,13.971 -0.786,8.151 -2.782,11.078 -7.797,11.439 -3.707,0.266 -8.636,0.646 -10.953,0.844 -2.317,0.197 -4.213,2.633 -4.213,5.414 0,3.639 3.725,5.055 13.284,5.055 7.306,0 14.022,0.07 14.281,2.427 0.922,8.401 8.654,7.286 7.193,1.237 -1.041,-4.311 3.712,-1.671 8.594,-2.565 4.029,-0.738 7.541,-0.797 8.18,5.641 0.959,9.666 9.134,8.45 9.134,-1.297 0,-4.854 3.335,-10.225 8.424,-13.559 6.298,-4.127 8.426,-8.463 8.426,-17.17 0,-10.199 -1.679,-12.508 -13.48,-18.529 -8.872,-4.526 -13.481,-9.158 -13.481,-13.549 0,-3.67 1.516,-6.672 3.369,-6.672 5.299,0 3.936,-9.173 -1.683,-11.33 -2.78,-1.067 -4.636,-1.377 -5.131,-7.943 -0.03,-2.542 -1.883,-4.464 -3.75,-4.699 z m -8.408,24.146 c 2.492,-0.307 5.351,1.34 6.816,5.158 1.124,2.932 2.047,5.966 2.047,6.741 0,0.776 -3.033,1.41 -6.74,1.41 -4.494,0 -6.742,-2.248 -6.742,-6.742 0,-3.999 2.126,-6.26 4.619,-6.567 z m -18.1,3.197 c 1.854,0 3.371,2.274 3.371,5.055 0,2.78 -1.517,5.057 -3.371,5.057 -1.853,0 -3.369,-2.277 -3.369,-5.057 0,-2.781 1.516,-5.055 3.369,-5.055 z m 19.455,27.381 c 0.771,-0.156 1.784,-0.07 3.074,0.18 4.235,0.816 6.118,4.191 6.118,10.963 0,5.381 -1.896,10.415 -4.213,11.187 -2.317,0.772 -4.354,0.9 -4.522,0.282 -0.17,-0.618 -1.025,-6.185 -1.904,-12.368 -1.01,-7.113 -0.866,-9.775 1.447,-10.244 z m 23.4,0.153 c 1.242,0.387 3.106,2.056 5.889,4.84 4.179,4.179 4.525,6.484 1.514,10.111 -6.211,7.484 -9.815,5.497 -9.815,-5.412 0,-7.265 0.343,-10.184 2.412,-9.539 z m 295.008,205.933 c 91.975,-0.225 143.029,1.911 151.664,6.377 4.857,2.513 5.899,7.718 5.899,29.49 v 26.44 l -118.801,2.264 v 0 c -71.976,6.892 -151.068,2.489 -213.168,0.664 -40.78,-1.175 -78.18,-3.044 -83.111,-4.151 -8.072,-1.812 -9.085,-3.742 -10.157,-19.371 -0.663,-9.548 -0.659,-22.063 0,-27.812 l 1.2,-10.454 160.908,-2.435 c 39.696,-0.601 74.9,-0.939 105.558,-1.014 z m 129.01,88.319 -5.666,16.886 c -9.62,28.668 -15.967,65.717 -23.029,134.411 -3.732,36.301 -6.785,69.07 -6.785,72.82 0.327,8.674 -9.646,7.11 -131.305,6.816 h -131.305 l -6.681,-21.633 c -9.709,-31.435 -29.463,-122.561 -35.705,-164.711 -2.962,-20.003 -6.089,-38.201 -6.948,-40.443 -1.208,-3.153 37.893,-4.079 172.932,-4.109 z" transform="translate(-123.77815,-61.625614) matrix(0.26458333,0,0,0.26458333,-3088.4299,-3202.4504)" fill="#0b411b"/>
</svg>