<?xml version="1.0" standalone="no"?>
<!DOCTYPE svg PUBLIC "-//W3C//DTD SVG 20010904//EN"
 "http://www.w3.org/TR/2001/REC-SVG-20010904/DTD/svg10.dtd">
<svg version="1.0" xmlns="http://www.w3.org/2000/svg"
 width="1024.000000pt" height="904.000000pt" viewBox="0 0 1024.000000 904.000000"
 preserveAspectRatio="xMidYMid meet">

<g transform="translate(0.000000,904.000000) scale(0.100000,-0.100000)"
fill="#000000" stroke="none">
<path d="M4981 9024 c-135 -29 -286 -125 -363 -231 -20 -26 -563 -961 -1208
-2078 -645 -1117 -1663 -2879 -2262 -3918 -733 -1269 -1098 -1911 -1115 -1959
-34 -98 -41 -229 -19 -332 50 -223 202 -391 433 -479 l58 -22 4585 -3 c4560
-2 4585 -2 4665 18 126 31 198 73 296 170 65 65 94 102 122 160 85 177 90 376
13 546 -22 47 -371 653 -2511 4359 -375 649 -985 1706 -1356 2350 -655 1137
-676 1172 -749 1245 -157 157 -373 221 -589 174z m227 -733 c20 -10 44 -27 54
-37 9 -11 476 -815 1038 -1789 562 -973 1522 -2635 2133 -3693 966 -1674 1111
-1930 1115 -1972 8 -85 -28 -154 -99 -190 -38 -20 -78 -20 -4332 -20 l-4293 0
-46 29 c-61 39 -92 102 -86 174 4 48 106 228 1183 2092 648 1122 1556 2695
2018 3495 1056 1830 1056 1830 1078 1861 44 63 163 88 237 50z"/>
<path d="M5025 5960 c-133 -18 -251 -78 -356 -181 -102 -101 -151 -197 -170
-334 -18 -130 8 -297 122 -785 187 -800 253 -1122 352 -1725 l23 -140 124 -3
125 -3 48 288 c84 497 158 860 306 1488 98 418 126 552 142 679 27 221 -23
386 -159 525 -107 109 -225 169 -377 191 -78 11 -95 11 -180 0z"/>
<path d="M4990 2394 c-222 -47 -424 -241 -475 -455 -63 -268 70 -536 332 -668
184 -93 441 -78 610 34 179 119 271 273 280 470 10 184 -40 308 -177 445 -65
66 -103 95 -161 123 -130 64 -269 81 -409 51z"/>
</g>
</svg>
